<svg preserveAspectRatio="none" overflow="visible" style="display: block;" width="18" height="12.6" viewBox="0 0 18 12.6" fill="none" xmlns="http://www.w3.org/2000/svg">
<path id="youtube" d="M17.55 1.9125C17.325 1.125 16.7625 0.5625 15.975 0.3375C14.625 2.01166e-07 8.88749 0 8.88749 0C8.88749 0 3.26251 2.01166e-07 1.80001 0.3375C1.01251 0.5625 0.449997 1.125 0.224997 1.9125C-3.43658e-06 3.375 0 6.3 0 6.3C0 6.3 3.41982e-06 9.225 0.337503 10.6875C0.562503 11.475 1.125 12.0375 1.9125 12.2625C3.2625 12.6 9 12.6 9 12.6C9 12.6 14.625 12.6 16.0875 12.2625C16.875 12.0375 17.4375 11.475 17.6625 10.6875C18 9.225 18 6.3 18 6.3C18 6.3 18 3.375 17.55 1.9125ZM7.19999 9V3.6L11.925 6.3L7.19999 9Z" fill="white"/>
</svg>
