<svg preserveAspectRatio="none" overflow="visible" style="display: block;" width="14" height="14.3333" viewBox="0 0 14 14.3333" fill="none" stroke-width="1.3" xmlns="http://www.w3.org/2000/svg">
<path id="Vector" d="M13.17 3.92239L12.8409 3.35132C12.5921 2.91944 12.4677 2.7035 12.2559 2.61738C12.0442 2.53128 11.8047 2.59922 11.3259 2.73512L10.5124 2.96425C10.2067 3.03476 9.88588 2.99476 9.60674 2.85132L9.38214 2.72174C9.14274 2.56842 8.95861 2.34235 8.85668 2.07662L8.63408 1.4117C8.48768 0.97169 8.41448 0.751684 8.24021 0.625844C8.06601 0.500004 7.83454 0.500004 7.37161 0.500004H6.62841C6.16554 0.500004 5.93408 0.500004 5.75981 0.625844C5.58558 0.751684 5.51238 0.97169 5.366 1.4117L5.14336 2.07662C5.04144 2.34235 4.85731 2.56842 4.61792 2.72174L4.39334 2.85132C4.11417 2.99476 3.7934 3.03476 3.48766 2.96425L2.67418 2.73512C2.19528 2.59922 1.95584 2.53128 1.74412 2.61738C1.5324 2.7035 1.40798 2.91944 1.15911 3.35132L0.830056 3.92239C0.596783 4.32722 0.480143 4.52964 0.502783 4.74512C0.525416 4.9606 0.681563 5.13425 0.993849 5.48154L1.68121 6.25C1.84921 6.46266 1.96848 6.83333 1.96848 7.1666C1.96848 7.5 1.84925 7.87053 1.68123 8.08326L0.993849 8.85173C0.681563 9.19906 0.525423 9.37266 0.502783 9.5882C0.480143 9.80366 0.596783 10.0061 0.830056 10.4109L1.1591 10.9819C1.40796 11.4138 1.5324 11.6298 1.74412 11.7159C1.95584 11.802 2.19529 11.7341 2.67419 11.5981L3.48764 11.369C3.79343 11.2985 4.11426 11.3385 4.39346 11.482L4.61801 11.6116C4.85735 11.7649 5.04144 11.9909 5.14334 12.2567L5.366 12.9217C5.51238 13.3617 5.58558 13.5817 5.75981 13.7075C5.93408 13.8333 6.16554 13.8333 6.62841 13.8333H7.37161C7.83454 13.8333 8.06601 13.8333 8.24021 13.7075C8.41448 13.5817 8.48768 13.3617 8.63408 12.9217L8.85674 12.2567C8.95861 11.9909 9.14268 11.7649 9.38208 11.6116L9.60661 11.482C9.88581 11.3385 10.2066 11.2985 10.5124 11.369L11.3259 11.5981C11.8047 11.7341 12.0442 11.802 12.2559 11.7159C12.4677 11.6298 12.5921 11.4138 12.8409 10.9819L13.17 10.4109C13.4033 10.0061 13.5199 9.80366 13.4973 9.5882C13.4746 9.37266 13.3185 9.19906 13.0062 8.85173L12.3188 8.08326C12.1508 7.87053 12.0315 7.5 12.0315 7.1666C12.0315 6.83333 12.1509 6.46266 12.3188 6.25L13.0062 5.48154C13.3185 5.13425 13.4746 4.9606 13.4973 4.74512C13.5199 4.52964 13.4033 4.32722 13.17 3.92239Z" stroke="currentColor" stroke-linecap="round"/>
</svg>
